<?xml version="1.0" encoding="UTF-8"?>
<svg width="45px" height="45px" viewBox="0 0 45 45" version="1.1" xmlns="http://www.w3.org/2000/svg" xmlns:xlink="http://www.w3.org/1999/xlink">
    <!-- Generator: Sketch 47 (45396) - http://www.bohemiancoding.com/sketch -->
    <title>足球</title>
    <desc>Created with Sketch.</desc>
    <defs></defs>
    <g id="Dowsload-page" stroke="none" stroke-width="1" fill="none" fill-rule="evenodd">
        <g id="web" transform="translate(-230.000000, -80.000000)" fill-rule="nonzero" fill="#FFFFFF">
            <g id="足球" transform="translate(230.000000, 80.000000)">
                <path d="M15.8111899,10.7616131 L9.06337422,22.4357856 L15.8111899,34.1087381 L29.3080413,34.1087381 L36.055857,22.4357856 L29.3080413,10.7616131 L15.8111899,10.7616131 Z M29.3080412,9.58187384 L33.2608387,2.74499822 C30.0620007,0.993079331 26.3885831,0 22.4833656,0 C18.6232881,0 14.9913504,0.968679392 11.8156924,2.68033828 L15.8099699,9.58065388 L29.3080412,9.58065383 L29.3080412,9.58187384 Z M8.10445482,22.9420852 L0.0024400304,22.9420852 C0.164699909,30.8757402 4.43713719,37.7858157 10.7799131,41.6556533 L14.8498305,34.6174778 L8.10445482,22.9420852 Z M15.8111899,35.2860373 L11.7815325,42.2571129 C14.9608505,43.9846318 18.6086481,44.9545311 22.4821456,44.9545311 C26.4032231,44.9545311 30.0851808,43.9529118 33.2962187,42.1900129 L29.3056012,35.2860373 L15.8111899,35.2860373 Z M30.3999405,34.8260976 L34.305158,41.5812333 C40.528374,37.7296957 44.7202914,30.9416201 44.9533112,23.1482651 L37.1501962,23.1482651 L30.3999405,34.8260976 Z M37.1477562,21.8819059 L44.9545312,21.8819059 C44.7459114,14.0702509 40.564974,7.2650953 34.340538,3.39769778 L30.3999405,10.2126134 L37.1477562,21.8819059 Z M14.6412106,10.3712133 L10.6139932,3.40135778 C4.35295723,7.29315529 0.153719909,14.1629709 0,22.0405058 L7.89583495,22.0405058 L14.6412106,10.3712133 Z" id="Shape"></path>
            </g>
        </g>
    </g>
</svg>